# Blender v3.3.1 OBJ File: ''
# www.blender.org
mtllib cone.mtl
o Cone
v 0.100325 -0.999805 -1.018614
v 0.791166 -0.999696 -0.649293
v 1.018606 -0.999790 0.100324
v 0.649293 -0.999696 0.791166
v -0.100325 -0.999805 1.018614
v -0.791166 -0.999696 0.649293
v -1.018606 -0.999790 -0.100324
v -0.649293 -0.999696 -0.791166
v 0.000000 1.000000 0.000000
vt 0.272961 0.483127
vt 0.250000 0.250000
vt 0.431082 0.398610
vt 0.483127 0.227039
vt 0.398610 0.068918
vt 0.227039 0.016873
vt 0.068918 0.101390
vt 0.016873 0.272961
vt 0.101390 0.431082
vt 0.727039 0.016873
vt 0.568918 0.101390
vt 0.516873 0.272961
vt 0.601390 0.431082
vt 0.772961 0.483127
vt 0.931082 0.398610
vt 0.983127 0.227039
vt 0.898610 0.068918
vn 0.4262 0.4275 -0.7973
vn 0.8651 0.4275 -0.2624
vn 0.7973 0.4275 0.4262
vn 0.2624 0.4275 0.8651
vn -0.4262 0.4275 0.7973
vn -0.8651 0.4275 0.2624
vn -0.7973 0.4275 -0.4262
vn -0.2624 0.4275 -0.8651
vn 0.0000 -1.0000 -0.0000
usemtl None
s off
f 1/1/1 9/2/1 2/3/1
f 2/3/2 9/2/2 3/4/2
f 3/4/3 9/2/3 4/5/3
f 4/5/4 9/2/4 5/6/4
f 5/6/5 9/2/5 6/7/5
f 6/7/6 9/2/6 7/8/6
f 7/8/7 9/2/7 8/9/7
f 8/9/8 9/2/8 1/1/8
f 5/10/9 6/11/9 7/12/9 8/13/9 1/14/9 2/15/9 3/16/9 4/17/9
